<svg width="1949" height="1948" xmlns="http://www.w3.org/2000/svg" xmlns:xlink="http://www.w3.org/1999/xlink" overflow="hidden"><defs><clipPath id="clip0"><rect x="942" y="437" width="1949" height="1948"/></clipPath><clipPath id="clip1"><rect x="941" y="625" width="1950" height="1571"/></clipPath><clipPath id="clip2"><rect x="941" y="625" width="1950" height="1571"/></clipPath><clipPath id="clip3"><rect x="941" y="625" width="1950" height="1571"/></clipPath></defs><g clip-path="url(#clip0)" transform="translate(-942 -437)"><rect x="942" y="437" width="1949" height="1948" fill="#FFFFFF"/><g clip-path="url(#clip1)"><g clip-path="url(#clip2)"><g clip-path="url(#clip3)"><path d="M1345.77 1478.08C1356.01 1449.07 1439.08 1371.02 1456.95 1343.14 1465.18 1330.3 1471.4 1320.78 1478.13 1310.05 1505.67 1266.18 1533.85 1222.8 1556.2 1173.89 1561.78 1161.68 1568.21 1153.67 1571.92 1141.73 1576.12 1128.2 1577.51 1110.69 1582.73 1095.76 1587.02 1083.55 1597 1067.08 1601.22 1056.63 1602.63 1053.15 1603.97 1047.3 1604.47 1045.65 1609.28 1029.93 1607.59 1016.91 1612.6 1000.12 1612.43 1000.76 1584.64 993.985 1584.47 994.621 1564.19 1069.49 1538.55 1143.12 1516.3 1179.75 1491.04 1221.35 1483.99 1250.67 1448.21 1297.3 1438.96 1309.36 1431.01 1320.47 1421.75 1333.65 1395.63 1370.81 1366.39 1403.88 1336.15 1436.66 1324.54 1449.23 1316.69 1458.73 1304.87 1468.22 1292.39 1478.25 1282.66 1489.73 1275.92 1504.19 1287.01 1502.89 1313.61 1492.66 1345.77 1478.08Z" fill="#898778" fill-rule="evenodd" transform="matrix(1 0 0 1.00006 942.478 626)"/><path d="M1369.25 1467.18C1429.61 1438.54 1502.47 1399.55 1529.32 1378.46 1547.68 1363.98 1570.8 1350.1 1588.14 1334.41 1599.93 1323.73 1617.92 1314.27 1625.69 1300.16 1621.12 1289.67 1616.18 1287.93 1606.67 1281.53 1598.93 1276.32 1594.43 1270.78 1586.84 1264.42 1577.68 1256.76 1554.72 1237.51 1539.62 1233.69L1531.3 1246.27C1509.38 1288.86 1486.19 1330.06 1453.4 1365.25 1444.26 1375.05 1440.92 1380.41 1432.94 1390.5 1423.5 1402.44 1381.53 1462.96 1369.25 1467.18Z" fill="#634136" fill-rule="evenodd" transform="matrix(1 0 0 1.00006 942.478 626)"/><path d="M1034.03 644.053 999.221 774.181C981.553 852.237 997.014 799.86 960.46 860.939L908.443 934.605C897.251 948.255 882.572 967.268 872.596 984.468L780.27 1143.44C758.327 1181.14 551.206 1486.28 568.456 1513.63L606.714 1469.85C668.742 1407.56 708.306 1372.37 771.515 1303.22L830.102 1239.04C837.431 1230.27 841.231 1223.34 849.224 1215.34 882.293 1182.26 928.166 1116.45 960.6 1078.15 1011.75 1017.77 1050 924.012 1059.93 845.993 1063.11 821.043 1065.91 794.472 1066.46 768.893 1067.03 742.293 1063.6 714.029 1069.98 688.208 1080.41 717.173 1079.76 816.48 1076.15 851.837 1069.24 919.538 1032.73 1074.81 1013.03 1141.83 1006.02 1165.66 999.478 1186.52 991.896 1209.54 984.93 1230.68 974.656 1255.56 971.67 1278.22 981.343 1276.32 1062.28 1211.49 1074.29 1200.42 1093.99 1182.27 1134.85 1128.79 1144.18 1090.44 1172.2 975.269 1101.84 892.666 1102.85 783.178 1117.76 801.202 1167.1 995.321 1182.62 1040.29 1209.66 1118.69 1253.36 1216.28 1266.57 1296.36 1285.53 1411.18 1248.05 1445.48 1248.7 1496.9 1261.75 1493.02 1263.22 1477.74 1279.78 1463.01 1319.08 1428.02 1329.94 1414.73 1362.49 1374.3 1368.66 1366.63 1372.71 1363.13 1378.2 1355.87 1407.07 1317.7 1482.62 1230.43 1488.63 1190.38 1467.63 1179.65 1349.85 1068.65 1331.37 1048.52 1325.42 1042.04 1324.27 1040.3 1317.24 1034.21L1218.77 918.413C1188.66 883.896 1168.67 846.269 1143.6 810.797 1120.04 777.474 1078.33 715.434 1069.15 673.551L1066.12 655.244C1066.74 645.972 1066.87 650.926 1067.84 648.421 1095.64 726.848 1154.83 798.27 1202.52 866.126 1211.1 878.331 1220.92 887.625 1229.99 898.485 1238.6 908.793 1247.08 921.132 1256.38 932.196 1295.77 979.052 1353.13 1044.95 1399.38 1083.31 1414.62 1095.95 1485.05 1158.06 1502.49 1161.63 1523.42 1137.21 1555.35 1033.8 1567.77 994.54 1562.17 986.907 1466.15 923.243 1446.23 910.867 1395.49 879.351 1345.88 837.725 1297.15 802.83 1290.23 797.879 1287.01 796.537 1282.01 792.277 1275.9 787.075 1274.03 784.523 1268.51 780.115L1153.91 688.955C1143.95 680.266 1137.9 671.594 1128.38 663.205L1103 638.134C1092.3 639.309 1082.7 642.453 1071.55 643.43 1059.32 644.499 1047.32 643.02 1034.03 644.056Z" fill="#634136" fill-rule="evenodd" transform="matrix(1 0 0 1.00006 942.478 626)"/><path d="M245.987 1137.35C244.375 1159.38 257.433 1193.37 265.996 1207.81 286.649 1204.81 330.693 1173.56 350.977 1162.74 410.022 1131.22 574.262 1029.17 613.792 994.152 622.683 986.275 624.522 986.173 633.596 979.696L779.504 859.928C804.16 837.269 823.185 826.921 850.879 797.079 859.584 787.701 873.544 771.382 887.365 766.583 880.023 780.614 869.189 790.119 859.445 802.821 844.657 822.091 778.329 883.979 757.4 903.572 732.677 926.715 712.11 944.153 686.215 966.484 647.333 1000.01 574.519 1050.52 529.35 1081.03L320.94 1209.57C308.257 1217.91 287.511 1226.84 278.4 1235.41 278.998 1242.93 300.69 1287.89 306.047 1299.16L586.26 1109.46 702.069 1011 929.79 767.355C937.076 759.211 943.542 752.914 949.498 744.327L1003.57 669.787C1010.45 661.637 1016.98 654.206 1022.27 644.189L971.255 640.373C957.403 652.832 946.326 663.794 932.847 676.279 926.185 682.448 921.411 689.795 914.807 695.261 905.696 702.8 902.202 702.952 892.368 712.808L806.848 781.65C735.309 834.175 714.603 852.652 628.487 908.836 565.135 950.167 508.167 990.469 442.524 1028.43L346.187 1083.47C321.957 1096.92 262.114 1122.74 245.997 1137.36Z" fill="#823116" fill-rule="evenodd" transform="matrix(1 0 0 1.00006 942.478 626)"/><path d="M925.825 1568.73 996.316 1563.33C1003.02 1550.71 1007.17 1545.95 1015.55 1535.79 1067.57 1472.67 1034.48 1510.62 1088.73 1463.32 1160.35 1400.86 1234.22 1391.89 1238.98 1326.01 1241.39 1292.72 1238.82 1267.17 1229.56 1239.18 1217.05 1201.36 1192.26 1127.08 1174.44 1100.71 1166.64 1222.53 1130.8 1287.33 1071.27 1354.47 1063.6 1363.12 1059.61 1369.61 1051.74 1377.73 1044.14 1385.57 1038.4 1392.06 1030.35 1402.13L991.26 1454.46C973.071 1478 930.699 1533.94 925.828 1568.73Z" fill="#997A65" fill-rule="evenodd" transform="matrix(1 0 0 1.00006 942.478 626)"/><path d="M604.538 1529.25C631.789 1530.46 654.051 1540.9 680.963 1544.69 687.672 1525.81 734.189 1475.71 751.65 1457.61L926.002 1314.94C944.286 1301.08 937.779 1306.85 945.192 1279.62 962.46 1216.18 1013.17 1108.5 1018.24 1029.95 1004.03 1040.12 1006.28 1044.41 994.605 1063.67 987.382 1075.6 979.194 1088.58 972.275 1098.33L871.318 1226.02C852.525 1247.47 835.881 1266.61 817.615 1286.45 781.045 1326.16 745.738 1365.51 708.136 1402.68 688.816 1421.77 669.006 1439.51 651.648 1460.42 636.935 1478.14 612.998 1500.4 604.538 1529.25Z" fill="#466655" fill-rule="evenodd" transform="matrix(1 0 0 1.00006 942.478 626)"/><path d="M471.145 1328.51C507.879 1314.95 642.273 1217.25 686.525 1184.08 731.449 1150.41 750.506 1135.77 778.581 1093.17 802.38 1057.06 825.631 1016.8 845.141 976.965 861.522 943.524 912.814 834.957 918.552 803.713 917.687 804.24 916.441 803.974 916.004 805.363L833.989 903.073C824.553 914.556 814.266 923.339 804.966 933.985 794.729 945.703 788.086 952.908 775.769 964.875 765.467 974.882 758.104 984.57 747.492 996.428L581.82 1196.35C562.72 1221.23 477.085 1309.62 471.142 1328.51Z" fill="#EB5126" fill-rule="evenodd" transform="matrix(1 0 0 1.00006 942.478 626)"/><path d="M772.43 1559.34 864.489 1569.91C871.111 1549.41 928.714 1472.55 942.039 1459.59L1035.44 1361.54C1094.01 1295.87 1150.06 1228.25 1162.62 1105.09 1146.85 1130.77 1142.28 1172.44 1075.71 1230.38 1056.54 1247.07 1037.99 1263.15 1018.89 1279.28 927.22 1356.66 820.569 1447.71 772.43 1559.34Z" fill="#0C0C0A" fill-rule="evenodd" transform="matrix(1 0 0 1.00006 942.478 626)"/><path d="M382.174 1429.85C403.983 1438.21 479.221 1482.82 488.518 1485.41 501.34 1473.62 534.149 1427.75 546.144 1412.05 551.808 1404.63 554.461 1402.37 559.97 1394.42 589.047 1352.42 706.291 1217.43 718.338 1185.17 708.347 1188.93 693.754 1204.41 677.079 1217.35 662.545 1228.64 650.857 1238.14 636.104 1247.82 606.497 1267.24 584.353 1288.41 550.884 1308.18 520.177 1326.32 495.416 1345.62 463.745 1363.9 444.884 1374.79 388.52 1410.31 382.174 1429.85Z" fill="#87603E" fill-rule="evenodd" transform="matrix(1 0 0 1.00006 942.478 626)"/><path d="M312.923 1334.45C313.341 1350.9 326.077 1359.73 334.707 1371.14L351.039 1397.64C351.287 1398.24 351.578 1399.07 351.814 1399.64 353.708 1404.21 352.509 1402.56 354.276 1405.26L370.688 1396.62C375.257 1394.18 374.086 1395.06 379.97 1391.81 384.465 1383.64 400.691 1377.17 423.7 1346.68L552.006 1197.91C560.497 1188.23 601.286 1138.47 602.411 1126.89L498.017 1206.73C484.339 1217.87 476.239 1222.7 461.55 1233.13L349.935 1310.01C339.872 1316.5 320.94 1330.66 312.929 1334.45Z" fill="#8A8A30" fill-rule="evenodd" transform="matrix(1 0 0 1.00006 942.478 626)"/><path d="M1660.83 1276.04 1794.2 1115.78C1773.55 1100.52 1786.36 1140.58 1722.9 1164.65 1650.96 1184.98 1646.06 1166.7 1601.53 1172.44 1590.98 1173.79 1593.33 1174.58 1583.31 1177.53 1569.86 1181.48 1567.32 1176.22 1563.45 1187.7 1556.44 1208.56 1573.34 1213.03 1584.38 1223.52 1601.51 1239.79 1637.59 1273.72 1660.83 1276.05Z" fill="#634136" fill-rule="evenodd" transform="matrix(1 0 0 1.00006 942.478 626)"/><path d="M1035.26 1559.34C1048.8 1560.7 1181.1 1541.33 1194.99 1523.87 1200.34 1517.15 1248.33 1410.63 1241.58 1375.63 1230.14 1399.05 1154.58 1438.53 1129.42 1458.3 1097.57 1483.33 1051.5 1520.08 1035.26 1559.33Z" fill="#0C0C0A" fill-rule="evenodd" transform="matrix(1 0 0 1.00006 942.478 626)"/><path d="M902.478 903.647C915.84 898.023 952.679 842.174 960.314 829.314 971.596 810.317 973.992 807.669 979.473 782.918 983.736 763.659 990.231 746.215 992.801 726.873 974.129 734.109 990.076 723.147 975.641 744.795 958.265 770.852 954.306 759.146 938.536 807.576 928.643 837.958 907.534 874.282 902.478 903.644Z" fill="#0C0C0A" fill-rule="evenodd" transform="matrix(1 0 0 1.00006 942.478 626)"/><path d="M1660.37 1322.32C1683.27 1329.76 1828.01 1331.01 1865.98 1326.61 1878.76 1325.13 1881.77 1324.07 1882.57 1313.07 1861.9 1305.94 1750.36 1311.59 1708.94 1310.77 1678.87 1310.18 1665.85 1306.96 1660.36 1322.32Z" fill="#0026FF" fill-rule="evenodd" transform="matrix(1 0 0 1.00006 942.478 626)"/><path d="M1848.58 1379.8C1848.58 1374.13 1847.15 1375.52 1852.78 1375.52L1850.51 1369.64 1852.31 1368.2C1845.9 1368.67 1847.28 1370.32 1847.28 1364.27 1834.58 1366.58 1748.11 1362.1 1726.08 1361.72L1631.65 1361.33C1615.57 1361.9 1613.33 1360.2 1612.78 1374.81 1644.24 1380.76 1695.38 1377.54 1728.94 1377.86 1751.43 1378.08 1833.51 1376.47 1848.58 1379.79Z" fill="#0026FF" fill-rule="evenodd" transform="matrix(1 0 0 1.00006 942.478 626)"/><path d="M1767.92 1274.31 1901.78 1271.58 1907.9 1269.43C1906.24 1256.45 1909.02 1263.56 1903.66 1254.88L1900.63 1256.68C1875.45 1254.93 1777.38 1252.29 1759.94 1257.93 1758.68 1273.78 1758.63 1266.34 1767.92 1274.31Z" fill="#0026FF" fill-rule="evenodd" transform="matrix(1 0 0 1.00006 942.478 626)"/><path d="M1900.63 1256.68 1903.66 1254.88C1917.54 1255.67 1905.43 1255.61 1910.82 1251.14 1872.32 1240.84 1892.51 1237.83 1875.96 1231.2 1866.11 1227.25 1841.88 1227.77 1831.56 1229.22 1815.41 1231.48 1812.67 1220.23 1787.99 1231.81 1771.01 1239.78 1781.24 1243.97 1773.2 1247.58L1764.22 1251.65C1763.52 1252 1762.43 1252.49 1761.67 1253.1L1883.36 1250.2C1897.79 1251.52 1897.44 1253.86 1900.63 1256.68Z" fill="#F3F5ED" fill-rule="evenodd" transform="matrix(1 0 0 1.00006 942.478 626)"/><path d="M1582.48 1424.48C1596 1433.07 1730.5 1429.83 1752.61 1427.84 1764 1426.82 1765.17 1427.93 1771.47 1421.31 1751.26 1413.03 1702.99 1416.24 1677.52 1415.91L1600.38 1415.83C1588.85 1417.1 1587.1 1417.65 1582.48 1424.48Z" fill="#0026FF" fill-rule="evenodd" transform="matrix(1 0 0 1.00006 942.478 626)"/><path d="M1807.41 1213.12C1820.45 1220.08 1882.93 1221.3 1903.12 1218.74 1910.35 1217.82 1905.4 1219.09 1909.98 1217.11 1914.83 1215.02 1912.29 1216.04 1915.54 1213.12 1912.07 1202.02 1919.62 1209.49 1908.77 1204.66L1860.31 1203.27C1839.87 1203.68 1819.25 1202.11 1807.41 1213.12Z" fill="#0026FF" fill-rule="evenodd" transform="matrix(1 0 0 1.00006 942.478 626)"/><path d="M244.992 1094.26C222.088 1101.71 77.3487 1102.95 39.3812 1098.56 26.6024 1097.08 23.5921 1096.01 22.7861 1085.01 43.4579 1077.88 155.001 1083.53 196.422 1082.71 226.488 1082.12 239.511 1078.9 244.995 1094.26Z" fill="#0026FF" fill-rule="evenodd" transform="matrix(1 0 0 1.00006 942.478 626)"/><path d="M5.22995 1041.89C5.22995 1036.22 7.01254 1037.61 0 1037.61L2.82114 1031.73 0.576628 1030.3C8.56881 1030.77 6.85133 1032.41 6.85133 1026.36 22.6776 1028.68 130.451 1024.2 157.9 1023.82L275.588 1023.43C295.633 1023.99 298.426 1022.3 299.108 1036.9 259.895 1042.86 196.162 1039.63 154.338 1039.96 126.316 1040.17 24.0075 1038.56 5.22685 1041.89Z" fill="#0026FF" fill-rule="evenodd" transform="matrix(1 0 0 1.00006 942.478 626)"/><path d="M240.702 1221.12 106.844 1218.4 100.73 1216.24C102.385 1203.26 99.6078 1210.37 104.965 1201.69L107.994 1203.49C133.176 1201.74 231.249 1199.1 248.681 1204.74 249.946 1220.59 249.996 1213.15 240.702 1221.12Z" fill="#0026FF" fill-rule="evenodd" transform="matrix(1 0 0 1.00006 942.478 626)"/><path d="M223.294 1151C210.382 1159.59 81.9462 1156.35 60.8373 1154.36 49.9527 1153.34 48.8366 1154.45 42.8254 1147.83 62.1208 1139.55 108.223 1142.76 132.541 1142.43L206.206 1142.35C217.215 1143.62 218.886 1144.17 223.297 1151Z" fill="#0026FF" fill-rule="evenodd" transform="matrix(1 0 0 1.00006 942.478 626)"/><path d="M280.38 1272.21C267.338 1279.17 204.858 1280.39 184.67 1277.83 177.44 1276.91 182.391 1278.18 177.809 1276.2 172.957 1274.1 175.506 1275.12 172.254 1272.21 175.726 1261.11 168.174 1268.58 179.018 1263.75L227.48 1262.36C247.922 1262.77 268.541 1261.2 280.384 1272.21Z" fill="#0026FF" fill-rule="evenodd" transform="matrix(1 0 0 1.00006 942.478 626)"/><path d="M280.486 1320.34C273.963 1327.31 242.726 1328.53 232.632 1325.97 229.017 1325.05 231.494 1326.31 229.203 1324.33 226.776 1322.24 228.05 1323.26 226.426 1320.34 228.162 1309.25 224.386 1316.72 229.808 1311.88L254.039 1310.49C264.26 1310.91 274.568 1309.34 280.489 1320.34Z" fill="#0026FF" fill-rule="evenodd" transform="matrix(1 0 0 1.00006 942.478 626)"/><path d="M301.601 1363.31C298.34 1370.27 282.721 1371.49 277.674 1368.93 275.867 1368.01 277.104 1369.27 275.96 1367.3 274.748 1365.2 275.383 1366.22 274.571 1363.31 275.439 1352.21 273.551 1359.68 276.26 1354.85L288.376 1353.45C293.488 1353.87 298.64 1352.3 301.601 1363.31Z" fill="#0026FF" fill-rule="evenodd" transform="matrix(1 0 0 1.00006 942.478 626)"/><path d="M1589.79 665.952C1583.11 637.028 1576.42 608.1 1569.74 579.176 1491.67 570.117 1460.77 531.821 1462.09 473.551 1379.27 484.801 1345.6 442.267 1334.71 374.82 1252.83 382.695 1216.33 320.791 1186.22 249.088 1199.71 309.913 1206.92 365.771 1185.41 398.93 1251.23 427.734 1289.27 465.404 1278.14 518.779 1358.78 517.526 1403.93 550.909 1424.83 607.948 1504.83 608.789 1555.07 631.63 1589.79 665.949 1592.21 667.902 1596.27 670.596 1589.79 665.949Z" fill="#CF1B7B" fill-rule="evenodd" transform="matrix(1 0 0 1.00006 942.478 626)"/><path d="M1686.08 265.053C1685.42 267.22 1684.52 269.843 1683.41 272.891 1668.92 312.318 1616.39 423.474 1523.95 557.844 1485.67 537.798 1474.88 498.891 1471.57 454.869 1390.8 466.377 1355.98 428.626 1346.15 364.094 1319.19 366.177 1292.97 367.681 1289.42 351.678 1367.24 268.268 1460.51 209.167 1544.61 157.305 1565.97 148.444 1583.82 157.258 1603.68 165.846 1637.54 180.481 1658.92 197.886 1678.47 221.279 1690.04 235.125 1692.5 247.947 1686.08 265.053Z" fill="#E03A3A" fill-rule="evenodd" transform="matrix(1 0 0 1.00006 942.478 626)"/><path d="M1583.6 997.817C1573.84 1029.46 1597.74 1058.57 1612.61 1000.12 1636.53 774.773 1696.7 767.569 1847.06 531.666 1885.14 471.929 1923.41 321.764 1923.78 203.602 1923.9 168.428 1914.12 115.31 1901.21 85.2789 1869.27 10.9683 1804.66 12.2301 1708.21 87.2227 1711.72 90.1492 1715.22 93.0758 1718.73 96.0023 1806.5 23.4991 1867.37 20.0549 1895.28 101.254 1907.65 137.247 1911.5 175.372 1910.36 212.754 1906.85 328.2 1870.06 468.2 1833.9 525.584 1683.61 764.109 1602.71 765.792 1583.6 997.82Z" fill="#898778" fill-rule="evenodd" transform="matrix(1 0 0 1.00006 942.478 626)"/><path d="M1674.43 123.513C1693.47 110.353 1711.57 104.205 1725.73 119.436 1722.2 145.729 1712.49 159.174 1706.12 158.018 1695.23 157.097 1691.07 153.997 1680.17 153.076 1678.26 143.221 1676.35 133.365 1674.43 123.51Z" fill="#4D897C" fill-rule="evenodd" transform="matrix(1 0 0 1.00006 942.478 626)"/><path d="M954.207 530.99C908.529 481.837 875.996 460.893 827.073 452.708 857.315 492.291 885.111 535.436 890.778 591.192 903.365 599.531 923.853 594.841 956.653 585.739 969.286 577.325 973.028 544.786 954.204 530.99Z" fill="#2B2A29" fill-rule="evenodd" transform="matrix(1 0 0 1.00006 942.478 626)"/><path d="M884.237 595.17C871.16 542.067 849.819 494.384 818.052 453.598 759.251 447.823 712.023 456.478 684.066 489.151 731.771 549.027 770.582 604.628 777.799 645.014 784.341 701.734 820.991 715.697 875.008 704.989 886.791 701.303 900.054 698.308 915.415 696.272 903.755 680.74 910.297 670.519 915.161 664.309 887.746 650.817 865.416 664.932 842.8 677.506 831.392 663.187 846.877 637.335 884.234 595.173Z" fill="#2B2A29" fill-rule="evenodd" transform="matrix(1 0 0 1.00006 942.478 626)"/><path d="M321.699 812.89C334.934 614.713 461.463 515.344 670.147 487.625 702.571 526.929 729.443 564.044 748.661 598.146 777.505 656.258 767.758 709.503 721.253 758.098 621.998 853.393 513.242 922.31 391.908 956.315 380.692 960.252 371.237 953.416 363.833 933.982 345.397 897.143 329.13 858.567 321.699 812.893Z" fill="#2B2A29" fill-rule="evenodd" transform="matrix(1 0 0 1.00006 942.478 626)"/><path d="M925.224 689.25C916.317 680.29 917.43 674.22 926.126 670.326L1025.76 722.66 1021.56 734.682 925.227 689.247Z" fill="#EBECEC" fill-rule="evenodd" transform="matrix(1 0 0 1.00006 942.478 626)"/><path d="M1033.06 725.032 1113.12 758.349 1097.45 762.032 1100.78 778.68 1029.47 735.321Z" fill="#EBECEC" fill-rule="evenodd" transform="matrix(1 0 0 1.00006 942.478 626)"/><path d="M815.302 762.385C814.579 761.768 791.406 783.094 790.662 782.515 782.983 776.559 774.008 772.603 763.784 770.632 755.416 783.342 743.332 790.922 724.629 789.347 716.77 803.047 708.269 809.47 699.294 810.521 666.123 856.772 636.107 897.053 597.154 909.723 573.825 917.309 552.487 930.032 540.337 941.016 531.046 931.545 523.277 930.106 515.629 930.792 527.301 920.019 538.97 909.246 550.639 898.473 628.763 856.915 693.14 795.851 754.964 731.158 763.966 731.886 769.916 736.037 771.788 744.745 789.54 741.927 801.596 746.9 815.302 762.388Z" fill="#2B2A29" fill-rule="evenodd" transform="matrix(1 0 0 1.00006 942.478 626)"/><path d="M819.89 767.569C826.478 775.018 830.638 781.656 837.223 792.54 825.786 799.739 823.579 804.191 812.146 811.392 807.889 801.633 803.143 793.932 797.6 788.445 796.719 787.574 820.975 768.496 819.89 767.569Z" fill="#EBECEC" fill-rule="evenodd" transform="matrix(1 0 0 1.00006 942.478 626)"/><path d="M519.101 978.831C518.776 979.762 491.758 996.893 491.432 997.804 478.371 1034.39 466.064 1055.67 447.178 1088.66 456.705 1096.84 466.234 1101 475.752 1097.9 490.744 1056.55 504.106 1020.18 519.101 978.835Z" fill="#EBECEC" fill-rule="evenodd" transform="matrix(1 0 0 1.00006 942.478 626)"/><path d="M496.067 983.649C496.067 983.649 521.563 971.565 521.975 970.427 524.747 962.788 527.518 955.14 530.29 947.498 524.139 942.901 517.901 939.134 510.796 943.245L496.067 983.649Z" fill="#2B2A29" fill-rule="evenodd" transform="matrix(1 0 0 1.00006 942.478 626)"/><path d="M462.341 1108.33 448.83 1105.21 421.406 1143.29 361.601 1176.88 356.471 1193.7 364.968 1186.88 366.599 1210.54 377.852 1182.89 433.745 1154.98Z" fill="#EBECEC" fill-rule="evenodd" transform="matrix(1 0 0 1.00006 942.478 626)"/><path d="M824.159 815.296 836.525 809.607 893.943 949.746 877.981 962.553Z" fill="#EBECEC" fill-rule="evenodd" transform="matrix(1 0 0 1.00006 942.478 626)"/><path d="M865.723 457.774C870.878 459.281 876.037 460.784 881.192 462.288 858.716 396.162 846.049 330.023 857.408 263.847 855.058 253.347 850.002 253.4 843.278 259.951 832.12 311.735 842.199 379.647 865.723 457.774Z" fill="#2B2A29" fill-rule="evenodd" transform="matrix(1 0 0 1.00006 942.478 626)"/><path d="M961.306 530.373C965.988 533.213 969.367 537.014 967.581 542.076 1034.84 523.252 1066.77 523.029 1132.23 537.987 1142.84 536.214 1143.07 531.164 1136.9 524.092 1085.8 510.12 1035.5 508.483 961.309 530.373Z" fill="#2B2A29" fill-rule="evenodd" transform="matrix(1 0 0 1.00006 942.478 626)"/><path d="M400.982 959.09 393.362 969.674 384.793 1010.13 347.387 1065.89 358.421 1059.66 355.686 1071.73 396.921 1016.24 405.698 981.361 414.89 966.369C409.244 966.136 404.569 963.79 400.982 959.09Z" fill="#2B2A29" fill-rule="evenodd" transform="matrix(1 0 0 1.00006 942.478 626)"/><path d="M1861.37 881.533C1808.27 953.785 1730.72 1020.23 1686.47 1094.23 1726.16 1064.22 1762.14 1045.24 1800.87 1031.45 1755.11 1055.91 1722.27 1077.48 1674.56 1113.73 1651.79 1128.73 1629.02 1143.73 1606.24 1158.73 1629.42 1159.22 1683.5 1166.72 1700.74 1154.98 1711.07 1147.95 1719.69 1146.43 1744.97 1140.45 1840.16 1019.64 1910.28 894.16 1940.44 780.785 1845.93 868.649 1742.08 942.836 1629.83 1004.06 1626.48 1024.97 1624.1 1047.12 1618.3 1062.66 1607.94 1090.41 1587.28 1097.53 1593.57 1144.72 1598.75 1144.17 1603.81 1137.91 1608.99 1137.35 1622.28 1124.51 1628.97 1109.67 1634.13 1094.36 1656.55 1046.58 1684.77 1014.73 1712.39 981.225 1683.89 1022.02 1658.77 1064.61 1646.48 1113.98 1717.55 1030.55 1788.88 949.901 1861.37 881.533Z" fill="#327505" fill-rule="evenodd" transform="matrix(1 0 0 1.00006 942.478 626)"/><path d="M1774.91 263.082C1759.99 241.666 1745.07 220.253 1730.15 198.837 1813.79 230.248 1880.9 218.328 1945.01 198.549 1905.16 196.304 1891.12 201.962 1796.72 178.646 1760.31 169.656 1727.64 145.273 1684.61 146.529 1680.38 139.091 1670.42 38.2775 1653.24 0 1637.99 34.1481 1629.62 74.6237 1626.92 120.307 1592.34 88.2891 1547.96 72.9558 1498.74 65.8285 1497.69 65.7665 1496.65 65.7076 1495.6 65.6456 1441.29 60.5893 1396.73 34.4302 1354.45 3.37296 1402.1 64.4366 1453.15 94.6568 1506.57 103.576 1536.67 107.801 1565.54 116.671 1588.62 147.319 1629.28 161.834 1663.66 184.586 1691.02 216.579 1751.93 320.571 1842.56 367.758 1948.05 386.542 1882.97 354.707 1818.2 322.487 1774.91 263.082Z" fill="#327505" fill-rule="evenodd" transform="matrix(1 0 0 1.00006 942.478 626)"/></g></g></g></g></svg>