<svg width="1753" height="1754" xmlns="http://www.w3.org/2000/svg" xmlns:xlink="http://www.w3.org/1999/xlink" overflow="hidden"><defs><clipPath id="clip0"><rect x="602" y="150" width="1753" height="1754"/></clipPath><clipPath id="clip1"><rect x="680" y="535" width="1520" height="1224"/></clipPath><clipPath id="clip2"><rect x="680" y="535" width="1520" height="1224"/></clipPath><clipPath id="clip3"><rect x="680" y="535" width="1520" height="1224"/></clipPath></defs><g clip-path="url(#clip0)" transform="translate(-602 -150)"><path d="M602 1027C602 542.646 994.422 150 1478.5 150 1962.58 150 2355 542.646 2355 1027 2355 1511.35 1962.58 1904 1478.5 1904 994.422 1904 602 1511.35 602 1027Z" fill="#FFFFFF" fill-rule="evenodd"/><g clip-path="url(#clip1)"><g clip-path="url(#clip2)"><g clip-path="url(#clip3)"><path d="M1048.39 1151.46C1056.37 1128.87 1121.08 1068.06 1135 1046.34 1141.41 1036.33 1146.26 1028.92 1151.5 1020.56 1172.96 986.388 1194.91 952.591 1212.32 914.493 1216.67 904.98 1221.68 898.74 1224.57 889.437 1227.84 878.9 1228.92 865.259 1232.99 853.628 1236.33 844.11 1244.1 831.281 1247.4 823.145 1248.49 820.43 1249.53 815.87 1249.93 814.59 1253.67 802.341 1252.35 792.202 1256.26 779.12 1256.13 779.617 1234.47 774.34 1234.34 774.835 1218.54 833.162 1198.57 890.519 1181.24 919.058 1161.56 951.461 1156.07 974.308 1128.2 1010.63 1120.99 1020.02 1114.79 1028.68 1107.58 1038.95 1087.23 1067.9 1064.45 1093.66 1040.89 1119.19 1031.85 1128.99 1025.73 1136.39 1016.53 1143.78 1006.81 1151.59 999.225 1160.54 993.972 1171.8 1002.62 1170.79 1023.33 1162.82 1048.39 1151.46Z" fill="#898778" fill-rule="evenodd" transform="matrix(1.00045 0 0 1 681.373 536)"/><path d="M1066.68 1142.97C1113.7 1120.66 1170.47 1090.29 1191.38 1073.86 1205.68 1062.58 1223.7 1051.76 1237.2 1039.54 1246.39 1031.22 1260.41 1023.85 1266.45 1012.86 1262.89 1004.69 1259.05 1003.33 1251.64 998.345 1245.61 994.29 1242.1 989.972 1236.19 985.016 1229.06 979.046 1211.17 964.056 1199.41 961.076L1192.92 970.876C1175.85 1004.05 1157.78 1036.15 1132.23 1063.56 1125.11 1071.2 1122.52 1075.38 1116.3 1083.24 1108.94 1092.54 1076.25 1139.69 1066.68 1142.97Z" fill="#634136" fill-rule="evenodd" transform="matrix(1.00045 0 0 1 681.373 536)"/><path d="M805.534 501.734 778.419 603.108C764.656 663.915 776.7 623.112 748.224 670.694L707.701 728.082C698.982 738.715 687.547 753.527 679.775 766.926L607.851 890.767C590.757 920.142 429.404 1157.85 442.842 1179.16L472.646 1145.05C520.968 1096.53 551.789 1069.11 601.031 1015.24L646.671 965.244C652.38 958.409 655.341 953.012 661.567 946.786 687.329 921.012 723.065 869.742 748.332 839.908 788.176 792.867 817.979 719.829 825.714 659.051 828.187 639.614 830.373 618.914 830.8 598.987 831.245 578.266 828.569 556.247 833.544 536.132 841.671 558.696 841.164 636.059 838.35 663.603 832.964 716.344 804.527 837.304 789.176 889.519 783.718 908.081 778.62 924.332 772.713 942.262 767.286 958.731 759.282 978.112 756.956 995.768 764.492 994.288 827.545 943.781 836.903 935.157 852.244 921.019 884.075 879.358 891.347 849.481 913.177 759.76 858.359 695.41 859.149 610.116 870.763 624.158 909.202 775.381 921.289 810.417 942.359 871.488 976.399 947.517 986.695 1009.9 1001.46 1099.34 972.267 1126.07 972.772 1166.12 982.94 1163.1 984.084 1151.2 996.978 1139.72 1027.59 1112.47 1036.06 1102.11 1061.41 1070.62 1066.22 1064.64 1069.37 1061.91 1073.65 1056.26 1096.14 1026.52 1155 958.54 1159.68 927.339 1143.32 918.976 1051.57 832.503 1037.17 816.824 1032.54 811.774 1031.64 810.419 1026.17 805.674L949.457 715.468C925.994 688.578 910.424 659.266 890.893 631.632 872.543 605.672 840.045 557.341 832.894 524.714L830.535 510.452C831.018 503.229 831.119 507.088 831.873 505.137 853.529 566.234 899.643 621.873 936.794 674.735 943.477 684.243 951.128 691.483 958.192 699.943 964.899 707.974 971.511 717.586 978.757 726.205 1009.44 762.707 1054.12 814.042 1090.15 843.924 1102.02 853.77 1156.89 902.159 1170.48 904.942 1186.78 885.915 1211.66 805.355 1221.34 774.773 1216.97 768.827 1142.17 719.23 1126.65 709.589 1087.13 685.037 1048.48 652.61 1010.51 625.425 1005.12 621.569 1002.61 620.523 998.717 617.205 993.957 613.152 992.503 611.164 988.202 607.73L898.926 536.714C891.163 529.945 886.456 523.19 879.037 516.654L859.27 497.123C850.933 498.039 843.448 500.488 834.768 501.248 825.239 502.082 815.892 500.93 805.534 501.736Z" fill="#634136" fill-rule="evenodd" transform="matrix(1.00045 0 0 1 681.373 536)"/><path d="M191.631 886.026C190.375 903.186 200.547 929.67 207.218 940.917 223.307 938.579 257.618 914.237 273.42 905.801 319.418 881.249 447.365 801.754 478.16 774.471 485.087 768.334 486.519 768.254 493.588 763.209L607.254 669.907C626.462 652.255 641.283 644.193 662.857 620.945 669.639 613.64 680.514 600.927 691.28 597.188 685.561 608.119 677.121 615.524 669.53 625.418 658.01 640.43 606.339 688.643 590.035 703.906 570.774 721.935 554.753 735.52 534.579 752.916 504.289 779.033 447.566 818.382 412.378 842.151L250.02 942.286C240.14 948.78 223.978 955.743 216.881 962.418 217.347 968.275 234.245 1003.3 238.418 1012.08L456.712 864.3 546.93 787.599 724.331 597.79C730.006 591.445 735.044 586.54 739.684 579.85L781.81 521.782C787.167 515.432 792.258 509.643 796.376 501.84L756.633 498.867C745.842 508.573 737.213 517.113 726.712 526.839 721.522 531.645 717.803 537.369 712.659 541.626 705.561 547.5 702.839 547.618 695.178 555.296L628.555 608.926C572.825 649.845 556.694 664.239 489.608 708.007 440.255 740.205 395.875 771.602 344.738 801.177L269.689 844.05C250.813 854.531 204.194 874.642 191.638 886.034Z" fill="#823116" fill-rule="evenodd" transform="matrix(1.00045 0 0 1 681.373 536)"/><path d="M721.242 1222.08 776.156 1217.88C781.38 1208.04 784.614 1204.33 791.14 1196.42 831.668 1147.25 805.889 1176.81 848.146 1139.97 903.946 1091.31 961.486 1084.32 965.198 1033 967.075 1007.06 965.07 987.156 957.859 965.35 948.116 935.893 928.8 878.025 914.923 857.48 908.844 952.381 880.923 1002.86 834.544 1055.17 828.569 1061.91 825.461 1066.96 819.331 1073.29 813.414 1079.4 808.939 1084.45 802.667 1092.29L772.217 1133.06C758.048 1151.4 725.039 1194.98 721.244 1222.08Z" fill="#997A65" fill-rule="evenodd" transform="matrix(1.00045 0 0 1 681.373 536)"/><path d="M470.951 1191.32C492.18 1192.27 509.523 1200.4 530.488 1203.35 535.714 1188.64 571.953 1149.62 585.555 1135.52L721.38 1024.37C735.624 1013.58 730.555 1018.07 736.329 996.858 749.781 947.438 789.287 863.549 793.238 802.36 782.168 810.284 783.916 813.619 774.823 828.629 769.196 837.92 762.818 848.032 757.427 855.628L678.78 955.098C664.139 971.808 651.173 986.724 636.943 1002.18 608.455 1033.11 580.949 1063.77 551.656 1092.72 536.605 1107.6 521.173 1121.42 507.651 1137.7 496.189 1151.51 477.542 1168.85 470.951 1191.33Z" fill="#466655" fill-rule="evenodd" transform="matrix(1.00045 0 0 1 681.373 536)"/><path d="M367.034 1034.95C395.651 1024.38 500.348 948.273 534.821 922.432 569.818 896.196 584.664 884.792 606.535 851.609 625.075 823.48 643.189 792.113 658.387 761.081 671.148 735.03 711.106 650.453 715.576 626.114 714.902 626.524 713.932 626.317 713.591 627.399L649.7 703.518C642.348 712.463 634.335 719.305 627.089 727.599 619.115 736.728 613.939 742.34 604.344 751.663 596.319 759.458 590.583 767.006 582.316 776.243L453.253 931.988C438.374 951.372 371.662 1020.23 367.032 1034.95Z" fill="#EB5126" fill-rule="evenodd" transform="matrix(1.00045 0 0 1 681.373 536)"/><path d="M601.743 1214.77 673.459 1223C678.618 1207.03 723.493 1147.15 733.873 1137.06L806.633 1060.67C852.263 1009.52 895.924 956.84 905.712 860.893 893.429 880.899 889.869 913.361 838.007 958.496 823.07 971.497 808.625 984.024 793.738 996.59 722.329 1056.87 639.245 1127.8 601.743 1214.76Z" fill="#0C0C0A" fill-rule="evenodd" transform="matrix(1.00045 0 0 1 681.373 536)"/><path d="M297.723 1113.89C314.714 1120.4 373.326 1155.16 380.569 1157.18 390.557 1147.99 416.116 1112.25 425.46 1100.02 429.873 1094.24 431.94 1092.49 436.232 1086.29 458.883 1053.57 550.219 948.408 559.604 923.282 551.821 926.206 540.453 938.267 527.462 948.35 516.14 957.139 507.035 964.544 495.542 972.084 472.477 987.214 455.226 1003.7 429.153 1019.11 405.231 1033.24 385.942 1048.28 361.269 1062.52 346.576 1071 302.667 1098.67 297.723 1113.89Z" fill="#87603E" fill-rule="evenodd" transform="matrix(1.00045 0 0 1 681.373 536)"/><path d="M243.775 1039.57C244.101 1052.38 254.022 1059.26 260.746 1068.16L273.469 1088.8C273.662 1089.27 273.889 1089.91 274.072 1090.35 275.548 1093.92 274.613 1092.63 275.99 1094.73L288.776 1088.01C292.335 1086.1 291.422 1086.79 296.006 1084.26 299.508 1077.89 312.149 1072.85 330.074 1049.1L430.027 933.205C436.642 925.665 468.418 886.898 469.294 877.878L387.968 940.072C377.313 948.754 371.002 952.514 359.56 960.638L272.609 1020.53C264.769 1025.59 250.02 1036.62 243.78 1039.57Z" fill="#8A8A30" fill-rule="evenodd" transform="matrix(1.00045 0 0 1 681.373 536)"/><path d="M1293.83 994.071 1397.73 869.22C1381.64 857.335 1391.62 888.545 1342.18 907.296 1286.14 923.13 1282.32 908.89 1247.63 913.358 1239.42 914.416 1241.25 915.029 1233.44 917.324 1222.96 920.405 1220.98 916.307 1217.97 925.253 1212.51 941.504 1225.68 944.984 1234.27 953.152 1247.62 965.826 1275.73 992.262 1293.83 994.075Z" fill="#634136" fill-rule="evenodd" transform="matrix(1.00045 0 0 1 681.373 536)"/><path d="M806.497 1214.76C817.044 1215.83 920.106 1200.74 930.926 1187.14 935.094 1181.9 972.48 1098.92 967.222 1071.65 958.308 1089.89 899.45 1120.66 879.851 1136.05 855.034 1155.56 819.145 1184.18 806.497 1214.76Z" fill="#0C0C0A" fill-rule="evenodd" transform="matrix(1.00045 0 0 1 681.373 536)"/><path d="M703.054 703.964C713.463 699.583 742.162 656.076 748.11 646.058 756.899 631.258 758.765 629.195 763.035 609.913 766.356 594.911 771.416 581.321 773.418 566.253 758.872 571.89 771.295 563.35 760.05 580.215 746.514 600.514 743.43 591.394 731.144 629.123 723.437 652.791 706.993 681.089 703.054 703.962Z" fill="#0C0C0A" fill-rule="evenodd" transform="matrix(1.00045 0 0 1 681.373 536)"/><path d="M1293.47 1030.12C1311.31 1035.92 1424.07 1036.89 1453.65 1033.47 1463.6 1032.31 1465.95 1031.48 1466.57 1022.92 1450.47 1017.36 1363.58 1021.76 1331.31 1021.12 1307.89 1020.66 1297.74 1018.15 1293.47 1030.12Z" fill="#0026FF" fill-rule="evenodd" transform="matrix(1.00045 0 0 1 681.373 536)"/><path d="M1440.09 1074.9C1440.09 1070.48 1438.97 1071.56 1443.36 1071.56L1441.6 1066.98 1443 1065.86C1438 1066.23 1439.08 1067.51 1439.08 1062.8 1429.19 1064.6 1361.82 1061.11 1344.66 1060.82L1271.1 1060.51C1258.57 1060.95 1256.82 1059.63 1256.4 1071.01 1280.91 1075.65 1320.75 1073.14 1346.89 1073.39 1364.41 1073.56 1428.36 1072.3 1440.1 1074.89Z" fill="#0026FF" fill-rule="evenodd" transform="matrix(1.00045 0 0 1 681.373 536)"/><path d="M1377.26 992.721 1481.54 990.598 1486.3 988.917C1485.01 978.807 1487.18 984.345 1483 977.583L1480.64 978.986C1461.02 977.621 1384.62 975.564 1371.04 979.962 1370.06 992.308 1370.02 986.509 1377.26 992.718Z" fill="#0026FF" fill-rule="evenodd" transform="matrix(1.00045 0 0 1 681.373 536)"/><path d="M1480.64 978.986 1483 977.583C1493.81 978.196 1484.38 978.153 1488.58 974.673 1458.59 966.647 1474.32 964.3 1461.43 959.134 1453.75 956.057 1434.87 956.465 1426.83 957.593 1414.25 959.356 1412.12 950.589 1392.89 959.614 1379.66 965.821 1387.63 969.089 1381.37 971.898L1374.37 975.066C1373.83 975.344 1372.98 975.721 1372.39 976.197L1467.19 973.938C1478.43 974.97 1478.15 976.793 1480.64 978.988Z" fill="#F3F5ED" fill-rule="evenodd" transform="matrix(1.00045 0 0 1 681.373 536)"/><path d="M1232.79 1109.71C1243.33 1116.4 1348.11 1113.87 1365.33 1112.33 1374.2 1111.53 1375.12 1112.39 1380.02 1107.24 1364.28 1100.79 1326.67 1103.29 1306.83 1103.03L1246.74 1102.97C1237.76 1103.96 1236.39 1104.39 1232.79 1109.71Z" fill="#0026FF" fill-rule="evenodd" transform="matrix(1.00045 0 0 1 681.373 536)"/><path d="M1408.02 945.051C1418.18 950.476 1466.85 951.425 1482.58 949.432 1488.21 948.718 1484.36 949.701 1487.93 948.16 1491.71 946.529 1489.72 947.324 1492.25 945.051 1489.55 936.408 1495.43 942.228 1486.98 938.461L1449.23 937.376C1433.31 937.7 1417.24 936.478 1408.02 945.051Z" fill="#0026FF" fill-rule="evenodd" transform="matrix(1.00045 0 0 1 681.373 536)"/><path d="M190.855 852.457C173.013 858.258 60.2567 859.226 30.679 855.804 20.7239 854.652 18.3789 853.821 17.751 845.255 33.8548 839.7 120.75 844.1 153.018 843.463 176.44 842.999 186.586 840.492 190.858 852.457Z" fill="#0026FF" fill-rule="evenodd" transform="matrix(1.00045 0 0 1 681.373 536)"/><path d="M4.07427 811.661C4.07427 807.244 5.46295 808.328 0 808.328L2.19774 803.747 0.449208 802.628C6.67533 802.993 5.33736 804.275 5.33736 799.564 17.6664 801.368 101.625 797.875 123.008 797.581L214.69 797.279C230.306 797.716 232.482 796.395 233.013 807.775 202.465 812.412 152.815 809.903 120.233 810.154 98.4031 810.323 18.7025 809.067 4.07185 811.658Z" fill="#0026FF" fill-rule="evenodd" transform="matrix(1.00045 0 0 1 681.373 536)"/><path d="M187.513 951.285 83.2339 949.162 78.4713 947.481C79.761 937.371 77.5971 942.909 81.7703 936.147L84.1299 937.55C103.748 936.186 180.149 934.128 193.729 938.526 194.715 950.872 194.753 945.073 187.513 951.282Z" fill="#0026FF" fill-rule="evenodd" transform="matrix(1.00045 0 0 1 681.373 536)"/><path d="M173.952 896.663C163.893 903.355 63.8382 900.826 47.3939 899.281 38.9145 898.484 38.045 899.343 33.3621 894.19 48.3937 887.741 84.3086 890.241 103.253 889.982L160.64 889.924C169.216 890.907 170.518 891.337 173.955 896.66Z" fill="#0026FF" fill-rule="evenodd" transform="matrix(1.00045 0 0 1 681.373 536)"/><path d="M218.424 991.083C208.263 996.508 159.59 997.457 143.862 995.464 138.23 994.749 142.087 995.732 138.518 994.191 134.738 992.561 136.723 993.356 134.19 991.083 136.895 982.44 131.012 988.26 139.46 984.492L177.213 983.408C193.138 983.732 209.2 982.51 218.426 991.083Z" fill="#0026FF" fill-rule="evenodd" transform="matrix(1.00045 0 0 1 681.373 536)"/><path d="M218.506 1028.58C213.425 1034.01 189.09 1034.96 181.226 1032.96 178.41 1032.25 180.34 1033.23 178.555 1031.69 176.664 1030.06 177.657 1030.85 176.391 1028.58 177.744 1019.94 174.802 1025.76 179.026 1021.99L197.903 1020.91C205.865 1021.23 213.895 1020.01 218.508 1028.58Z" fill="#0026FF" fill-rule="evenodd" transform="matrix(1.00045 0 0 1 681.373 536)"/><path d="M234.955 1062.05C232.414 1067.48 220.247 1068.42 216.315 1066.43 214.907 1065.72 215.871 1066.7 214.98 1065.16 214.036 1063.53 214.531 1064.32 213.898 1062.05 214.574 1053.41 213.103 1059.23 215.214 1055.46L224.652 1054.38C228.635 1054.7 232.649 1053.48 234.955 1062.05Z" fill="#0026FF" fill-rule="evenodd" transform="matrix(1.00045 0 0 1 681.373 536)"/><path d="M1238.49 518.794C1233.28 496.261 1228.07 473.726 1222.87 451.193 1162.05 444.136 1137.98 414.303 1139.01 368.908 1074.49 377.673 1048.26 344.538 1039.77 291.995 975.989 298.129 947.556 249.905 924.093 194.046 934.606 241.43 940.221 284.945 923.468 310.777 974.738 333.216 1004.38 362.562 995.703 404.142 1058.53 403.167 1093.7 429.172 1109.98 473.608 1172.3 474.262 1211.44 492.057 1238.49 518.792 1240.37 520.313 1243.54 522.412 1238.49 518.792Z" fill="#CF1B7B" fill-rule="evenodd" transform="matrix(1.00045 0 0 1 681.373 536)"/><path d="M1313.5 206.484C1312.98 208.172 1312.29 210.215 1311.42 212.589 1300.14 243.304 1259.21 329.897 1187.19 434.575 1157.37 418.959 1148.97 388.649 1146.39 354.355 1083.47 363.32 1056.35 333.911 1048.69 283.639 1027.68 285.262 1007.26 286.433 1004.49 273.966 1065.11 208.988 1137.77 162.947 1203.29 122.544 1219.93 115.642 1233.84 122.508 1249.31 129.198 1275.69 140.6 1292.34 154.158 1307.57 172.382 1316.59 183.168 1318.51 193.157 1313.5 206.484Z" fill="#E03A3A" fill-rule="evenodd" transform="matrix(1.00045 0 0 1 681.373 536)"/><path d="M1233.67 777.325C1226.06 801.974 1244.68 824.654 1256.26 779.122 1274.9 603.569 1321.78 597.956 1438.91 414.182 1468.57 367.645 1498.39 250.663 1498.68 158.611 1498.77 131.21 1491.15 89.8295 1481.09 66.4345 1456.21 8.54461 1405.88 9.52756 1330.74 67.9487 1333.47 70.2286 1336.2 72.5084 1338.93 74.7883 1407.31 18.3064 1454.73 15.6233 1476.48 78.8795 1486.11 106.919 1489.11 136.62 1488.22 165.741 1485.48 255.677 1456.83 364.74 1428.66 409.443 1311.57 595.261 1248.56 596.572 1233.67 777.328Z" fill="#898778" fill-rule="evenodd" transform="matrix(1.00045 0 0 1 681.373 536)"/><path d="M1304.43 96.2199C1319.26 85.9678 1333.36 81.1786 1344.39 93.044 1341.64 113.526 1334.07 124.001 1329.11 123.1 1320.63 122.383 1317.39 119.968 1308.9 119.25 1307.41 111.573 1305.92 103.895 1304.43 96.2174Z" fill="#4D897C" fill-rule="evenodd" transform="matrix(1.00045 0 0 1 681.373 536)"/><path d="M743.352 413.655C707.768 375.364 682.424 359.048 644.312 352.672 667.871 383.508 689.525 417.119 693.939 460.554 703.745 467.051 719.706 463.397 745.258 456.306 755.099 449.751 758.014 424.403 743.35 413.655Z" fill="#2B2A29" fill-rule="evenodd" transform="matrix(1.00045 0 0 1 681.373 536)"/><path d="M688.844 463.653C678.657 422.284 662.031 385.138 637.284 353.365 591.477 348.866 554.685 355.608 532.906 381.061 570.069 427.706 600.304 471.021 605.926 502.483 611.022 546.669 639.573 557.547 681.654 549.205 690.834 546.333 701.165 544 713.132 542.414 704.049 530.314 709.145 522.352 712.934 517.514 691.577 507.004 674.181 518 656.563 527.795 647.676 516.64 659.739 496.5 688.841 463.655Z" fill="#2B2A29" fill-rule="evenodd" transform="matrix(1.00045 0 0 1 681.373 536)"/><path d="M250.612 633.263C260.922 478.877 359.492 401.466 522.062 379.873 547.321 410.492 568.255 439.405 583.227 465.971 605.697 511.242 598.104 552.721 561.875 590.578 484.553 664.816 399.829 718.503 305.307 744.995 296.569 748.062 289.203 742.736 283.436 727.596 269.073 698.898 256.401 668.846 250.612 633.265Z" fill="#2B2A29" fill-rule="evenodd" transform="matrix(1.00045 0 0 1 681.373 536)"/><path d="M720.773 536.944C713.835 529.964 714.702 525.235 721.476 522.202L799.093 562.971 795.823 572.337 720.776 536.941Z" fill="#EBECEC" fill-rule="evenodd" transform="matrix(1.00045 0 0 1 681.373 536)"/><path d="M804.783 564.819 867.15 590.774 854.944 593.643 857.538 606.612 801.984 572.834Z" fill="#EBECEC" fill-rule="evenodd" transform="matrix(1.00045 0 0 1 681.373 536)"/><path d="M635.141 593.918C634.579 593.438 616.526 610.051 615.946 609.599 609.964 604.96 602.972 601.878 595.007 600.342 588.489 610.244 579.075 616.149 564.505 614.922 558.382 625.595 551.76 630.599 544.768 631.417 518.927 667.448 495.544 698.828 465.198 708.698 447.025 714.608 430.402 724.519 420.937 733.076 413.699 725.698 407.647 724.577 401.689 725.111 410.781 716.719 419.872 708.326 428.962 699.934 489.823 667.559 539.975 619.989 588.136 569.591 595.15 570.158 599.784 573.392 601.243 580.176 615.072 577.981 624.464 581.855 635.141 593.921Z" fill="#2B2A29" fill-rule="evenodd" transform="matrix(1.00045 0 0 1 681.373 536)"/><path d="M638.716 597.956C643.848 603.76 647.089 608.93 652.219 617.41 643.309 623.018 641.59 626.486 632.683 632.096 629.367 624.493 625.669 618.494 621.351 614.219 620.665 613.541 639.561 598.678 638.716 597.956Z" fill="#EBECEC" fill-rule="evenodd" transform="matrix(1.00045 0 0 1 681.373 536)"/><path d="M404.393 762.535C404.14 763.26 383.092 776.606 382.839 777.316 372.664 805.816 363.076 822.391 348.363 848.095 355.785 854.464 363.209 857.709 370.623 855.294 382.303 823.079 392.712 794.748 404.393 762.538Z" fill="#EBECEC" fill-rule="evenodd" transform="matrix(1.00045 0 0 1 681.373 536)"/><path d="M386.449 766.288C386.449 766.288 406.311 756.874 406.632 755.988 408.791 750.037 410.95 744.079 413.11 738.126 408.318 734.544 403.459 731.61 397.923 734.812L386.449 766.288Z" fill="#2B2A29" fill-rule="evenodd" transform="matrix(1.00045 0 0 1 681.373 536)"/><path d="M360.175 863.421 349.65 860.984 328.286 890.654 281.697 916.824 277.7 929.921 284.32 924.612 285.59 943.044 294.357 921.504 337.899 899.759Z" fill="#EBECEC" fill-rule="evenodd" transform="matrix(1.00045 0 0 1 681.373 536)"/><path d="M642.041 635.137 651.675 630.705 696.405 739.877 683.97 749.854Z" fill="#EBECEC" fill-rule="evenodd" transform="matrix(1.00045 0 0 1 681.373 536)"/><path d="M674.421 356.618C678.437 357.792 682.456 358.963 686.472 360.134 668.962 308.62 659.094 257.097 667.943 205.544 666.113 197.364 662.174 197.405 656.935 202.508 648.243 242.85 656.095 295.755 674.421 356.618Z" fill="#2B2A29" fill-rule="evenodd" transform="matrix(1.00045 0 0 1 681.373 536)"/><path d="M748.883 413.175C752.53 415.387 755.162 418.348 753.771 422.292 806.167 407.627 831.044 407.453 882.037 419.106 890.306 417.725 890.48 413.791 885.671 408.282 845.866 397.397 806.678 396.122 748.885 413.175Z" fill="#2B2A29" fill-rule="evenodd" transform="matrix(1.00045 0 0 1 681.373 536)"/><path d="M312.376 747.156 306.44 755.401 299.764 786.916 270.624 830.356 279.219 825.504 277.089 834.904 309.212 791.676 316.049 764.506 323.21 752.827C318.812 752.646 315.17 750.817 312.376 747.156Z" fill="#2B2A29" fill-rule="evenodd" transform="matrix(1.00045 0 0 1 681.373 536)"/><path d="M1450.05 686.738C1408.69 743.024 1348.28 794.784 1313.81 852.43 1344.72 829.054 1372.75 814.267 1402.92 803.529 1367.28 822.582 1341.69 839.386 1304.53 867.623 1286.79 879.31 1269.05 890.997 1251.3 902.683 1269.36 903.06 1311.49 908.902 1324.92 899.764 1332.97 894.281 1339.68 893.095 1359.38 888.442 1433.53 794.33 1488.16 696.574 1511.65 608.252 1438.03 676.7 1357.13 734.494 1269.68 782.187 1267.07 798.479 1265.22 815.737 1260.7 827.84 1252.63 849.46 1236.53 855.007 1241.43 891.767 1245.47 891.337 1249.41 886.459 1253.45 886.029 1263.8 876.026 1269.01 864.462 1273.03 852.539 1290.49 815.312 1312.48 790.502 1333.99 764.4 1311.79 796.18 1292.23 829.359 1282.65 867.822 1338.01 802.822 1393.59 739.998 1450.05 686.738Z" fill="#327505" fill-rule="evenodd" transform="matrix(1.00045 0 0 1 681.373 536)"/><path d="M1382.7 204.948C1371.08 188.264 1359.45 171.583 1347.83 154.899 1412.99 179.369 1465.27 170.083 1515.21 154.675 1484.17 152.926 1473.23 157.334 1399.69 139.17 1371.33 132.166 1345.88 113.171 1312.35 114.15 1309.06 108.356 1301.3 29.8192 1287.92 0 1276.04 26.6023 1269.52 58.1338 1267.41 93.7227 1240.48 68.7795 1205.9 56.8345 1167.56 51.2822 1166.74 51.2339 1165.93 51.188 1165.11 51.1397 1122.8 47.2006 1088.09 26.8221 1055.15 2.62763 1092.27 50.1978 1132.05 73.7401 1173.66 80.6884 1197.11 83.9802 1219.59 90.8897 1237.58 114.765 1269.25 126.073 1296.04 143.797 1317.35 168.721 1364.8 249.733 1435.4 286.493 1517.58 301.126 1466.88 276.326 1416.42 251.226 1382.7 204.948Z" fill="#327505" fill-rule="evenodd" transform="matrix(1.00045 0 0 1 681.373 536)"/></g></g></g></g></svg>