<svg width="3300" height="1732" xmlns="http://www.w3.org/2000/svg" xmlns:xlink="http://www.w3.org/1999/xlink" overflow="hidden"><defs><clipPath id="clip0"><rect x="391" y="259" width="3300" height="1732"/></clipPath><clipPath id="clip1"><rect x="1312" y="314" width="1459" height="1622"/></clipPath><clipPath id="clip2"><rect x="1312" y="314" width="1459" height="1623"/></clipPath><clipPath id="clip3"><rect x="1312" y="314" width="1459" height="1623"/></clipPath></defs><g clip-path="url(#clip0)" transform="translate(-391 -259)"><rect x="391" y="259" width="3300" height="1732" fill="#FFFFFF"/><g clip-path="url(#clip1)"><g clip-path="url(#clip2)"><g clip-path="url(#clip3)"><path d="M1016.54 1392.83C1023.49 1373.15 1079.83 1320.21 1091.95 1301.3 1097.53 1292.59 1101.75 1286.14 1106.32 1278.86 1125 1249.1 1144.11 1219.68 1159.27 1186.51 1163.05 1178.22 1167.42 1172.79 1169.93 1164.69 1172.78 1155.52 1173.72 1143.64 1177.27 1133.52 1180.18 1125.23 1186.94 1114.06 1189.81 1106.98 1190.77 1104.61 1191.67 1100.65 1192.01 1099.53 1195.28 1088.86 1194.13 1080.04 1197.53 1068.65 1197.41 1069.08 1178.56 1064.49 1178.44 1064.92 1164.69 1115.7 1147.29 1165.64 1132.21 1190.49 1115.08 1218.7 1110.29 1238.59 1086.02 1270.22 1079.75 1278.4 1074.36 1285.93 1068.07 1294.87 1050.36 1320.08 1030.52 1342.51 1010.02 1364.74 1002.14 1373.27 996.819 1379.72 988.803 1386.15 980.338 1392.95 973.733 1400.74 969.16 1410.55 976.686 1409.67 994.723 1402.73 1016.54 1392.84Z" fill="#898778" fill-rule="evenodd" transform="matrix(1 0 0 1.00043 1312 315.322)"/><path d="M1032.47 1385.43C1073.41 1366 1122.83 1339.56 1141.04 1325.26 1153.49 1315.43 1169.17 1306.02 1180.93 1295.37 1188.93 1288.13 1201.13 1281.72 1206.4 1272.15 1203.3 1265.03 1199.95 1263.85 1193.5 1259.51 1188.25 1255.98 1185.21 1252.22 1180.05 1247.91 1173.85 1242.71 1158.27 1229.66 1148.03 1227.06L1142.38 1235.6C1127.52 1264.48 1111.79 1292.43 1089.54 1316.3 1083.35 1322.95 1081.08 1326.58 1075.67 1333.43 1069.27 1341.52 1040.8 1382.57 1032.47 1385.44Z" fill="#634136" fill-rule="evenodd" transform="matrix(1 0 0 1.00043 1312 315.322)"/><path d="M805.098 827.136 781.49 915.398C769.509 968.339 779.993 932.814 755.201 974.241L719.921 1024.21C712.332 1033.46 702.374 1046.36 695.61 1058.02L632.989 1165.85C618.104 1191.42 477.623 1398.38 489.323 1416.94L515.271 1387.24C557.343 1344.99 584.176 1321.12 627.05 1274.22L666.79 1230.69C671.762 1224.74 674.339 1220.04 679.76 1214.62 702.188 1192.18 733.304 1147.54 755.301 1121.57 789.992 1080.61 815.94 1017.02 822.677 964.102 824.832 947.181 826.733 929.157 827.105 911.805 827.49 893.764 825.163 874.592 829.495 857.077 836.572 876.725 836.128 944.078 833.682 968.062 828.996 1013.98 804.236 1119.29 790.867 1164.75 786.117 1180.91 781.676 1195.07 776.532 1210.68 771.809 1225.02 764.841 1241.89 762.814 1257.26 769.373 1255.97 824.274 1212 832.417 1204.49 845.772 1192.18 873.49 1155.91 879.818 1129.9 898.826 1051.78 851.098 995.753 851.783 921.491 861.895 933.716 895.36 1065.38 905.885 1095.88 924.231 1149.05 953.867 1215.25 962.831 1269.56 975.683 1347.43 950.27 1370.71 950.71 1405.58 959.561 1402.95 960.559 1392.59 971.786 1382.59 998.443 1358.86 1005.81 1349.84 1027.88 1322.42 1032.08 1317.22 1034.82 1314.84 1038.54 1309.92 1058.12 1284.03 1109.37 1224.84 1113.44 1197.68 1099.2 1190.4 1019.31 1115.11 1006.78 1101.46 1002.74 1097.06 1001.97 1095.88 997.2 1091.75L930.414 1013.21C909.986 989.796 896.431 964.279 879.424 940.217 863.446 917.616 835.152 875.536 828.928 847.129L826.873 834.712C827.295 828.42 827.381 831.782 828.039 830.085 846.893 883.28 887.045 931.72 919.39 977.747 925.21 986.026 931.87 992.332 938.021 999.695 943.86 1006.69 949.617 1015.06 955.927 1022.56 982.638 1054.34 1021.55 1099.03 1052.91 1125.05 1063.25 1133.63 1111.02 1175.75 1122.85 1178.18 1137.04 1161.61 1158.7 1091.47 1167.13 1064.85 1163.33 1059.67 1098.2 1016.49 1084.69 1008.1 1050.28 986.721 1016.63 958.49 983.568 934.819 978.877 931.462 976.695 930.55 973.302 927.66 969.16 924.131 967.894 922.402 964.147 919.413L886.419 857.581C879.66 851.688 875.563 845.804 869.103 840.115L851.892 823.108C844.633 823.902 838.115 826.038 830.561 826.701 822.264 827.427 814.126 826.424 805.107 827.127Z" fill="#634136" fill-rule="evenodd" transform="matrix(1 0 0 1.00043 1312 315.322)"/><path d="M270.606 1161.72C269.512 1176.66 278.367 1199.72 284.179 1209.51 298.187 1207.47 328.06 1186.28 341.819 1178.94 381.867 1157.56 493.265 1088.35 520.076 1064.6 526.105 1059.25 527.352 1059.19 533.508 1054.79L632.471 973.556C649.193 958.186 662.099 951.168 680.88 930.926 686.782 924.566 696.254 913.497 705.627 910.24 700.65 919.758 693.301 926.204 686.687 934.819 676.657 947.888 631.668 989.864 617.474 1003.16 600.702 1018.85 586.757 1030.68 569.192 1045.83 542.821 1068.57 493.433 1102.82 462.798 1123.52L321.441 1210.7C312.84 1216.36 298.768 1222.42 292.589 1228.23 292.993 1233.33 307.709 1263.82 311.339 1271.47L501.394 1142.8 579.944 1076.02 734.397 910.762C739.337 905.236 743.724 900.968 747.761 895.143L784.439 844.584C789.102 839.058 793.535 834.014 797.118 827.222L762.519 824.632C753.124 833.084 745.611 840.519 736.466 848.984 731.947 853.167 728.708 858.152 724.231 861.858 718.052 866.971 715.68 867.075 709.011 873.758L651.008 920.452C602.485 956.077 588.44 968.611 530.033 1006.72 487.064 1034.75 448.426 1062.09 403.901 1087.83L338.557 1125.16C322.122 1134.29 281.534 1151.79 270.601 1161.72Z" fill="#823116" fill-rule="evenodd" transform="matrix(1 0 0 1.00043 1312 315.322)"/><path d="M731.711 1454.31 779.521 1450.65C784.071 1442.08 786.884 1438.86 792.564 1431.96 827.849 1389.15 805.407 1414.89 842.197 1382.81 890.783 1340.45 940.879 1334.36 944.109 1289.68 945.743 1267.1 943.996 1249.77 937.718 1230.78 929.234 1205.14 912.418 1154.75 900.337 1136.86 895.043 1219.49 870.736 1263.44 830.353 1308.98 825.149 1314.85 822.446 1319.25 817.106 1324.76 811.953 1330.08 808.06 1334.48 802.598 1341.31L776.087 1376.8C763.753 1392.77 735.014 1430.71 731.707 1454.31Z" fill="#997A65" fill-rule="evenodd" transform="matrix(1 0 0 1.00043 1312 315.322)"/><path d="M513.793 1427.53C532.274 1428.35 547.376 1435.43 565.631 1438.01 570.181 1425.2 601.732 1391.22 613.577 1378.94L731.834 1282.18C744.237 1272.78 739.823 1276.69 744.849 1258.22 756.562 1215.19 790.958 1142.15 794.397 1088.88 784.757 1095.78 786.281 1098.68 778.365 1111.75 773.465 1119.83 767.913 1128.64 763.217 1135.25L694.744 1221.86C681.996 1236.41 670.705 1249.4 658.32 1262.85 633.515 1289.78 609.571 1316.47 584.063 1341.68 570.957 1354.63 557.52 1366.66 545.748 1380.85 535.767 1392.86 519.531 1407.96 513.793 1427.53Z" fill="#466655" fill-rule="evenodd" transform="matrix(1 0 0 1.00043 1312 315.322)"/><path d="M423.317 1291.38C448.231 1282.18 539.387 1215.92 569.401 1193.42 599.872 1170.58 612.797 1160.65 631.841 1131.76 647.982 1107.27 663.755 1079.96 676.988 1052.94 688.098 1030.26 722.888 956.626 726.78 935.431 726.195 935.79 725.347 935.608 725.052 936.552L669.426 1002.83C663.025 1010.61 656.048 1016.57 649.742 1023.79 642.796 1031.74 638.292 1036.63 629.94 1044.75 622.954 1051.53 617.959 1058.11 610.76 1066.15L498.391 1201.75C485.435 1218.63 427.354 1278.58 423.322 1291.39Z" fill="#EB5126" fill-rule="evenodd" transform="matrix(1 0 0 1.00043 1312 315.322)"/><path d="M627.667 1447.94 690.107 1455.11C694.599 1441.2 733.667 1389.07 742.708 1380.28L806.055 1313.78C845.786 1269.23 883.797 1223.38 892.321 1139.84 881.628 1157.26 878.526 1185.52 833.374 1224.81 820.368 1236.13 807.793 1247.04 794.832 1257.98 732.66 1310.47 660.321 1372.22 627.672 1447.94Z" fill="#0C0C0A" fill-rule="evenodd" transform="matrix(1 0 0 1.00043 1312 315.322)"/><path d="M362.973 1360.11C377.766 1365.78 428.797 1396.04 435.103 1397.8 443.799 1389.8 466.055 1358.68 474.189 1348.04 478.032 1343.01 479.828 1341.48 483.566 1336.08 503.286 1307.59 582.811 1216.04 590.981 1194.16 584.203 1196.7 574.305 1207.2 562.995 1215.98 553.138 1223.63 545.212 1230.08 535.205 1236.64 515.122 1249.82 500.102 1264.18 477.405 1277.59 456.579 1289.89 439.784 1302.98 418.304 1315.38 405.511 1322.77 367.282 1346.86 362.977 1360.11Z" fill="#87603E" fill-rule="evenodd" transform="matrix(1 0 0 1.00043 1312 315.322)"/><path d="M316.002 1295.41C316.288 1306.56 324.925 1312.55 330.777 1320.29L341.855 1338.27C342.023 1338.67 342.218 1339.23 342.382 1339.62 343.666 1342.72 342.854 1341.6 344.051 1343.43L355.184 1337.57C358.282 1335.92 357.488 1336.51 361.48 1334.31 364.529 1328.76 375.534 1324.38 391.14 1303.69L478.163 1202.79C483.924 1196.23 511.588 1162.47 512.35 1154.62L441.545 1208.77C432.268 1216.33 426.774 1219.6 416.812 1226.67L341.107 1278.82C334.28 1283.22 321.441 1292.82 316.007 1295.4Z" fill="#8A8A30" fill-rule="evenodd" transform="matrix(1 0 0 1.00043 1312 315.322)"/><path d="M1230.24 1255.79 1320.7 1147.09C1306.69 1136.74 1315.38 1163.91 1272.34 1180.24 1223.54 1194.02 1220.22 1181.63 1190.02 1185.51 1182.87 1186.43 1184.46 1186.97 1177.67 1188.97 1168.54 1191.65 1166.81 1188.08 1164.2 1195.87 1159.44 1210.02 1170.9 1213.05 1178.39 1220.16 1190.01 1231.2 1214.48 1254.21 1230.24 1255.79Z" fill="#634136" fill-rule="evenodd" transform="matrix(1 0 0 1.00043 1312 315.322)"/><path d="M805.937 1447.94C815.119 1448.86 904.851 1435.72 914.273 1423.88 917.902 1419.32 950.451 1347.08 945.874 1323.33 938.112 1339.22 886.868 1366 869.806 1379.41 848.199 1396.39 816.952 1421.31 805.942 1447.94Z" fill="#0C0C0A" fill-rule="evenodd" transform="matrix(1 0 0 1.00043 1312 315.322)"/><path d="M715.875 1003.21C724.938 999.391 749.925 961.511 755.102 952.788 762.755 939.904 764.379 938.108 768.094 921.318 770.988 908.258 775.393 896.422 777.135 883.307 764.469 888.215 775.289 880.78 765.495 895.465 753.709 913.139 751.023 905.2 740.326 938.044 733.617 958.649 719.3 983.286 715.87 1003.21Z" fill="#0C0C0A" fill-rule="evenodd" transform="matrix(1 0 0 1.00043 1312 315.322)"/><path d="M1229.92 1287.18C1245.46 1292.23 1343.63 1293.07 1369.38 1290.09 1378.05 1289.09 1380.09 1288.36 1380.64 1280.91 1366.61 1276.07 1290.96 1279.9 1262.87 1279.35 1242.47 1278.94 1233.64 1276.76 1229.92 1287.18Z" fill="#0026FF" fill-rule="evenodd" transform="matrix(1 0 0 1.00043 1312 315.322)"/><path d="M1357.58 1326.16C1357.58 1322.32 1356.61 1323.26 1360.42 1323.26L1358.88 1319.28 1360.1 1318.3C1355.75 1318.62 1356.69 1319.73 1356.69 1315.63 1348.07 1317.2 1289.42 1314.16 1274.48 1313.91L1210.43 1313.65C1199.52 1314.03 1198 1312.88 1197.63 1322.79 1218.97 1326.82 1253.66 1324.64 1276.42 1324.86 1291.67 1325.01 1347.35 1323.91 1357.57 1326.17Z" fill="#0026FF" fill-rule="evenodd" transform="matrix(1 0 0 1.00043 1312 315.322)"/><path d="M1302.87 1254.61 1393.66 1252.76 1397.81 1251.3C1396.69 1242.5 1398.57 1247.32 1394.94 1241.43L1392.88 1242.66C1375.8 1241.47 1309.28 1239.67 1297.46 1243.5 1296.6 1254.25 1296.56 1249.21 1302.87 1254.61Z" fill="#0026FF" fill-rule="evenodd" transform="matrix(1 0 0 1.00043 1312 315.322)"/><path d="M1392.89 1242.66 1394.94 1241.43C1404.36 1241.97 1396.14 1241.93 1399.8 1238.9 1373.69 1231.92 1387.38 1229.87 1376.16 1225.38 1369.47 1222.69 1353.04 1223.05 1346.04 1224.03 1335.09 1225.57 1333.23 1217.94 1316.49 1225.79 1304.97 1231.2 1311.91 1234.04 1306.46 1236.49L1300.36 1239.25C1299.89 1239.49 1299.15 1239.82 1298.64 1240.23L1381.18 1238.26C1390.96 1239.16 1390.72 1240.75 1392.89 1242.66Z" fill="#F3F5ED" fill-rule="evenodd" transform="matrix(1 0 0 1.00043 1312 315.322)"/><path d="M1177.09 1356.47C1186.27 1362.3 1277.49 1360.1 1292.48 1358.75 1300.21 1358.06 1301.01 1358.81 1305.28 1354.32 1291.57 1348.71 1258.83 1350.88 1241.55 1350.66L1189.23 1350.61C1181.41 1351.47 1180.22 1351.84 1177.09 1356.48Z" fill="#0026FF" fill-rule="evenodd" transform="matrix(1 0 0 1.00043 1312 315.322)"/><path d="M1329.66 1213.11C1338.5 1217.84 1380.88 1218.66 1394.57 1216.93 1399.48 1216.31 1396.12 1217.16 1399.23 1215.82 1402.52 1214.4 1400.79 1215.1 1403 1213.12 1400.64 1205.59 1405.76 1210.66 1398.41 1207.38L1365.54 1206.44C1351.68 1206.72 1337.69 1205.65 1329.66 1213.12Z" fill="#0026FF" fill-rule="evenodd" transform="matrix(1 0 0 1.00043 1312 315.322)"/><text fill="#1F1B20" font-family="Franklin Gothic Heavy,Franklin Gothic Heavy_MSFontService,sans-serif" font-weight="900" font-size="127" transform="matrix(0.438523 0 0 0.453843 1373.93 1861)">VI IBERIAN CONGRESS OF BIOLOGICAL SYSTEMATICS<tspan font-size="127" x="901.05" y="143.221">LA LAGUNA</tspan><tspan font-size="127" x="1569.05" y="143.221">, </tspan><tspan font-size="127" x="1636.05" y="143.221">TENERIFE</tspan></text><path d="M269.925 1132.5C254.388 1137.54 156.218 1138.39 130.465 1135.41 121.795 1134.41 119.754 1133.68 119.21 1126.23 133.232 1121.39 208.887 1125.22 236.981 1124.67 257.373 1124.26 266.21 1122.08 269.925 1132.5Z" fill="#0026FF" fill-rule="evenodd" transform="matrix(1 0 0 1.00043 1312 315.322)"/><path d="M107.306 1096.98C107.306 1093.13 108.517 1094.08 103.758 1094.08L105.673 1090.09 104.148 1089.11C109.57 1089.43 108.404 1090.55 108.404 1086.45 119.137 1088.02 192.238 1084.98 210.856 1084.72L290.679 1084.46C304.275 1084.84 306.172 1083.69 306.634 1093.6 280.037 1097.64 236.809 1095.45 208.442 1095.67 189.434 1095.82 120.044 1094.72 107.306 1096.98Z" fill="#0026FF" fill-rule="evenodd" transform="matrix(1 0 0 1.00043 1312 315.322)"/><path d="M267.017 1218.54 176.229 1216.69 172.082 1215.23C173.203 1206.43 171.32 1211.25 174.954 1205.36L177.009 1206.58C194.089 1205.39 260.607 1203.6 272.434 1207.43 273.291 1218.18 273.327 1213.13 267.022 1218.53Z" fill="#0026FF" fill-rule="evenodd" transform="matrix(1 0 0 1.00043 1312 315.322)"/><path d="M255.209 1170.98C246.453 1176.8 159.335 1174.6 145.018 1173.26 137.637 1172.57 136.879 1173.31 132.801 1168.83 145.889 1163.22 177.159 1165.39 193.649 1165.17L243.613 1165.12C251.081 1165.97 252.215 1166.35 255.204 1170.98Z" fill="#0026FF" fill-rule="evenodd" transform="matrix(1 0 0 1.00043 1312 315.322)"/><path d="M293.932 1253.19C285.086 1257.91 242.706 1258.74 229.015 1257 224.111 1256.38 227.468 1257.24 224.361 1255.9 221.067 1254.48 222.8 1255.17 220.591 1253.19 222.945 1245.67 217.824 1250.73 225.177 1247.45L258.049 1246.51C271.912 1246.79 285.898 1245.73 293.932 1253.19Z" fill="#0026FF" fill-rule="evenodd" transform="matrix(1 0 0 1.00043 1312 315.322)"/><path d="M294 1285.84C289.577 1290.56 268.387 1291.39 261.542 1289.65 259.092 1289.03 260.77 1289.88 259.214 1288.55 257.568 1287.13 258.434 1287.82 257.332 1285.84 258.507 1278.32 255.948 1283.38 259.627 1280.1L276.063 1279.16C282.995 1279.44 289.99 1278.38 294.005 1285.84Z" fill="#0026FF" fill-rule="evenodd" transform="matrix(1 0 0 1.00043 1312 315.322)"/><path d="M308.322 1314.98C306.108 1319.7 295.515 1320.52 292.09 1318.79 290.865 1318.17 291.705 1319.02 290.929 1317.68 290.108 1316.26 290.539 1316.96 289.985 1314.98 290.575 1307.45 289.296 1312.52 291.133 1309.24L299.349 1308.3C302.815 1308.58 306.312 1307.51 308.317 1314.98Z" fill="#0026FF" fill-rule="evenodd" transform="matrix(1 0 0 1.00043 1312 315.322)"/><path d="M1182.05 841.989C1177.52 822.368 1172.99 802.753 1168.46 783.132 1115.5 776.99 1094.54 751.014 1095.44 711.492 1039.27 719.123 1016.43 690.275 1009.04 644.529 953.505 649.869 928.749 607.884 908.321 559.248 917.476 600.503 922.362 638.392 907.777 660.883 952.416 680.422 978.219 705.971 970.67 742.173 1025.37 741.324 1055.99 763.966 1070.16 802.653 1124.43 803.224 1158.5 818.717 1182.05 841.993 1183.69 843.318 1186.45 845.146 1182.05 841.993Z" fill="#CF1B7B" fill-rule="evenodd" transform="matrix(1 0 0 1.00043 1312 315.322)"/><path d="M1247.36 570.077C1246.91 571.547 1246.31 573.325 1245.55 575.393 1235.73 602.136 1200.1 677.528 1137.4 768.666 1111.43 755.07 1104.12 728.681 1101.87 698.822 1047.09 706.625 1023.47 681.021 1016.8 637.253 998.515 638.664 980.732 639.689 978.324 628.833 1031.1 572.259 1094.37 532.174 1151.41 496.999 1165.9 490.992 1178.01 496.967 1191.48 502.792 1214.44 512.717 1228.94 524.521 1242.21 540.39 1250.05 549.781 1251.72 558.477 1247.37 570.081Z" fill="#E03A3A" fill-rule="evenodd" transform="matrix(1 0 0 1.00043 1312 315.322)"/><path d="M1177.86 1067.08C1171.23 1088.54 1187.45 1108.28 1197.53 1068.64 1213.75 915.797 1254.57 910.911 1356.55 750.905 1382.37 710.385 1408.33 608.537 1408.59 528.391 1408.67 504.534 1402.03 468.505 1393.28 448.136 1371.61 397.736 1327.79 398.589 1262.38 449.452 1264.75 451.439 1267.13 453.421 1269.51 455.408 1329.04 406.233 1370.33 403.896 1389.26 458.969 1397.65 483.38 1400.26 509.243 1399.49 534.592 1397.1 612.892 1372.15 707.85 1347.62 746.773 1245.69 908.557 1190.82 909.696 1177.86 1067.07Z" fill="#898778" fill-rule="evenodd" transform="matrix(1 0 0 1.00043 1312 315.322)"/><path d="M1239.46 474.071C1252.38 465.143 1264.65 460.974 1274.25 471.308 1271.86 489.141 1265.27 498.26 1260.96 497.479 1253.57 496.853 1250.74 494.753 1243.35 494.127 1242.06 487.445 1240.76 480.758 1239.46 474.071Z" fill="#4D897C" fill-rule="evenodd" transform="matrix(1 0 0 1.00043 1312 315.322)"/><path d="M750.96 750.447C719.98 717.109 697.91 702.905 664.73 697.352 685.24 724.199 704.093 753.464 707.94 791.28 716.478 796.937 730.373 793.752 752.62 787.583 761.19 781.876 763.725 759.806 750.96 750.452Z" fill="#2B2A29" fill-rule="evenodd" transform="matrix(1 0 0 1.00043 1312 315.322)"/><path d="M703.504 793.979C694.635 757.964 680.159 725.619 658.615 697.956 618.735 694.041 586.703 699.911 567.74 722.071 600.099 762.682 626.42 800.394 631.315 827.79 635.751 866.259 660.611 875.731 697.248 868.468 705.241 865.969 714.237 863.936 724.653 862.557 716.746 852.023 721.182 845.092 724.48 840.877 705.885 831.727 690.738 841.299 675.4 849.828 667.661 840.115 678.163 822.582 703.504 793.984Z" fill="#2B2A29" fill-rule="evenodd" transform="matrix(1 0 0 1.00043 1312 315.322)"/><path d="M321.954 941.651C330.932 807.235 416.748 739.836 558.291 721.037 580.284 747.698 598.507 772.871 611.545 795.998 631.11 835.411 624.496 871.526 592.954 904.488 525.633 969.124 451.87 1015.87 369.573 1038.93 361.966 1041.6 355.551 1036.97 350.529 1023.78 338.027 998.797 326.994 972.63 321.949 941.655Z" fill="#2B2A29" fill-rule="evenodd" transform="matrix(1 0 0 1.00043 1312 315.322)"/><path d="M731.303 857.789C725.261 851.71 726.018 847.596 731.916 844.956L799.491 880.453 796.642 888.606 731.303 857.789Z" fill="#EBECEC" fill-rule="evenodd" transform="matrix(1 0 0 1.00043 1312 315.322)"/><path d="M804.445 882.059 858.746 904.66 848.118 907.155 850.377 918.447 802.009 889.037Z" fill="#EBECEC" fill-rule="evenodd" transform="matrix(1 0 0 1.00043 1312 315.322)"/><path d="M656.746 907.396C656.256 906.978 640.537 921.441 640.034 921.05 634.826 917.008 628.738 914.327 621.802 912.989 616.127 921.613 607.929 926.753 595.245 925.682 589.915 934.973 584.149 939.333 578.061 940.045 555.565 971.415 535.205 998.738 508.784 1007.33 492.961 1012.47 478.49 1021.11 470.247 1028.56 463.946 1022.13 458.679 1021.16 453.489 1021.62 461.405 1014.31 469.322 1007 477.238 999.699 530.228 971.514 573.892 930.096 615.823 886.215 621.929 886.709 625.966 889.522 627.236 895.428 639.276 893.514 647.455 896.889 656.751 907.396Z" fill="#2B2A29" fill-rule="evenodd" transform="matrix(1 0 0 1.00043 1312 315.322)"/><path d="M659.858 910.911C664.327 915.965 667.148 920.465 671.612 927.851 663.855 932.732 662.358 935.753 654.605 940.634 651.72 934.016 648.499 928.79 644.738 925.07 644.139 924.48 660.593 911.537 659.858 910.911Z" fill="#EBECEC" fill-rule="evenodd" transform="matrix(1 0 0 1.00043 1312 315.322)"/><path d="M455.844 1054.2C455.621 1054.83 437.298 1066.45 437.076 1067.07 428.216 1091.89 419.869 1106.32 407.058 1128.69 413.523 1134.24 419.983 1137.06 426.438 1134.96 436.609 1106.91 445.668 1082.25 455.839 1054.21Z" fill="#EBECEC" fill-rule="evenodd" transform="matrix(1 0 0 1.00043 1312 315.322)"/><path d="M440.22 1057.47C440.22 1057.47 457.513 1049.27 457.794 1048.5 459.672 1043.32 461.555 1038.13 463.433 1032.95 459.26 1029.83 455.032 1027.28 450.209 1030.07L440.22 1057.47Z" fill="#2B2A29" fill-rule="evenodd" transform="matrix(1 0 0 1.00043 1312 315.322)"/><path d="M417.347 1142.04 408.183 1139.92 389.584 1165.75 349.019 1188.53 345.539 1199.94 351.3 1195.32 352.407 1211.36 360.042 1192.61 397.949 1173.68Z" fill="#EBECEC" fill-rule="evenodd" transform="matrix(1 0 0 1.00043 1312 315.322)"/><path d="M662.752 943.284 671.14 939.423 710.086 1034.48 699.258 1043.16Z" fill="#EBECEC" fill-rule="evenodd" transform="matrix(1 0 0 1.00043 1312 315.322)"/><path d="M690.947 700.791C694.444 701.812 697.942 702.832 701.44 703.853 686.197 659.001 677.605 614.144 685.308 569.256 683.716 562.133 680.286 562.17 675.722 566.611 668.155 601.732 674.992 647.796 690.947 700.786Z" fill="#2B2A29" fill-rule="evenodd" transform="matrix(1 0 0 1.00043 1312 315.322)"/><path d="M755.777 750.03C758.953 751.958 761.244 754.534 760.033 757.969 805.651 745.198 827.313 745.049 871.707 755.197 878.907 753.995 879.056 750.57 874.869 745.77 840.21 736.293 806.092 735.182 755.773 750.03Z" fill="#2B2A29" fill-rule="evenodd" transform="matrix(1 0 0 1.00043 1312 315.322)"/><path d="M375.729 1040.81 370.562 1047.99 364.751 1075.43 339.379 1113.25 346.864 1109.03 345.008 1117.21 372.976 1079.57 378.928 1055.92 385.161 1045.75C381.332 1045.59 378.161 1044 375.729 1040.81Z" fill="#2B2A29" fill-rule="evenodd" transform="matrix(1 0 0 1.00043 1312 315.322)"/><path d="M1366.25 988.209C1330.24 1037.21 1277.64 1082.28 1247.63 1132.47 1274.54 1112.12 1298.95 1099.24 1325.22 1089.89 1294.19 1106.48 1271.91 1121.11 1239.55 1145.7 1224.11 1155.87 1208.66 1166.05 1193.21 1176.22 1208.94 1176.55 1245.62 1181.64 1257.3 1173.68 1264.31 1168.91 1270.16 1167.88 1287.3 1163.82 1351.87 1081.89 1399.43 996.773 1419.88 919.876 1355.79 979.471 1285.35 1029.79 1209.21 1071.31 1206.93 1085.5 1205.32 1100.52 1201.39 1111.06 1194.36 1129.88 1180.35 1134.71 1184.62 1166.72 1188.14 1166.35 1191.56 1162.1 1195.08 1161.72 1204.09 1153.01 1208.62 1142.95 1212.13 1132.57 1227.34 1100.16 1246.47 1078.56 1265.21 1055.83 1245.88 1083.5 1228.84 1112.39 1220.5 1145.87 1268.71 1089.28 1317.09 1034.58 1366.26 988.213Z" fill="#327505" fill-rule="evenodd" transform="matrix(1 0 0 1.00043 1312 315.322)"/><path d="M1307.61 568.738C1297.49 554.213 1287.37 539.691 1277.25 525.166 1333.98 546.469 1379.5 538.385 1422.98 524.97 1395.96 523.451 1386.43 527.284 1322.4 511.47 1297.71 505.373 1275.55 488.833 1246.36 489.686 1243.49 484.641 1236.74 416.263 1225.09 390.301 1214.74 413.464 1209.07 440.914 1207.23 471.898 1183.79 450.182 1153.68 439.78 1120.3 434.949 1119.59 434.908 1118.88 434.867 1118.17 434.826 1081.33 431.397 1051.11 413.654 1022.43 392.587 1054.75 434.005 1089.38 454.501 1125.6 460.548 1146.02 463.415 1165.6 469.43 1181.26 490.216 1208.83 500.061 1232.16 515.494 1250.71 537.192 1292.03 607.725 1353.49 639.73 1425.04 652.468 1380.9 630.875 1336.97 609.022 1307.61 568.729Z" fill="#327505" fill-rule="evenodd" transform="matrix(1 0 0 1.00043 1312 315.322)"/><path d="M202.109 797.785 196.851 752.212C222.904 749.322 243.985 752.72 260.085 762.405 276.185 772.091 286.025 785.95 289.554 803.991 293.801 825.712 287.785 845.078 271.567 862.081 255.354 879.12 230.598 890.896 197.459 897.375 164.583 903.798 136.816 902.664 114.156 893.972 91.4963 885.276 77.9821 869.602 73.5545 846.961 69.4172 825.798 73.8902 808.02 86.9825 793.666 100.079 779.354 119.169 768.938 144.151 762.514L156.363 807.725C142.364 810.46 132.692 814.47 127.253 819.769 121.809 825.068 119.663 830.516 120.743 836.032 123.751 851.434 145.662 855.167 186.508 847.183 209.368 842.715 224.551 837.67 231.95 832.072 239.395 826.424 242.38 819.982 240.964 812.742 238.437 799.822 225.486 794.837 202.109 797.785ZM71.1501 646.022 283.829 668.092 278.653 717.961 65.9786 695.891 71.1547 646.022ZM221.671 636.595 225.395 588.998C243.074 590.545 254.36 583.668 259.292 568.258 263.116 556.299 260.857 548.987 252.51 546.319 248.132 544.922 244.276 545.226 241.005 547.217 237.68 549.191 233.914 553.423 229.8 559.983 214.29 584.979 199.746 599.586 186.281 603.796 172.767 607.993 158.564 607.684 143.652 602.916 124.467 596.778 110.264 586.118 101.091 570.943 91.9181 555.769 90.6615 537.781 97.3302 516.932 107.437 485.331 130.746 469.802 167.333 470.292L170.417 514.673C155.465 514.428 145.988 520.552 141.987 533.055 138.657 543.461 141.221 550.012 149.668 552.716 153.433 553.922 156.758 553.7 159.602 551.999 162.433 550.338 165.822 546.414 169.864 540.258 180.851 523.274 189.548 511.506 195.962 504.956 202.322 498.387 211.178 494.032 222.514 491.922 233.797 489.795 245.977 490.824 259.056 495.007 279.665 501.599 294.372 513.321 303.123 530.156 311.874 546.991 312.935 565.776 306.317 586.467 294.222 624.283 265.983 641.014 221.68 636.6ZM392.519 429.886 353.814 411.268 326.608 446.344 353.895 479.683 329.013 511.765 190.981 340.848 223.408 299.04 423.816 389.534 392.514 429.89ZM295.198 410.474 311.184 389.861 254.233 362.247 295.193 410.47ZM575.598 248.821 595.449 297.534 481.987 348.143 461.877 303.06 476.811 268.492C479.052 263.515 482.777 253.254 488.007 237.757 493.274 222.247 496.096 210.865 496.554 203.584 497.012 196.303 495.81 189.407 492.916 182.915 490.153 176.719 486.615 172.386 482.219 169.846 477.864 167.283 473.477 166.961 469.086 168.916 458.144 173.797 457.005 187.76 465.715 210.788L423.884 217.864C416.408 193.703 415.664 173.62 421.625 157.561 427.586 141.506 438.002 130.133 452.89 123.492 469.008 116.302 484.709 116.084 500.02 122.889 515.267 129.657 527.094 142.464 535.518 161.344 541.134 173.933 543.674 187.134 543.175 200.93 542.676 214.725 534.157 239.349 517.571 274.711L575.607 248.826ZM678.081 285.603C658.656 288.819 641.64 281.352 627.019 263.193 612.402 245.033 602.372 219.67 596.969 187.044 591.425 153.573 592.841 126.205 601.22 104.942 609.599 83.6799 623.512 71.4087 642.896 68.1969 663.242 64.8263 680.558 72.5746 694.83 91.3828 709.07 110.255 718.864 135.709 724.19 167.863 729.611 200.594 728.096 227.6 719.635 248.876 711.179 270.152 697.302 282.414 678.081 285.599ZM671.163 240.606C677.918 239.485 681.529 233.093 681.951 221.435 682.382 209.826 680.948 194.198 677.718 174.695 673.263 147.812 668.827 130.515 664.454 122.789 660.076 115.068 655.254 111.643 650.064 112.5 643.749 113.548 640.306 119.695 639.734 130.945 639.122 142.205 640.383 157.321 643.536 176.347 647.814 202.173 651.947 219.634 655.911 228.616 659.849 237.657 664.925 241.636 671.159 240.606ZM893.333 253.562 878.589 304.053 758.259 273.132 770.544 225.318 803.733 207.53C808.582 205.026 817.882 199.306 831.614 190.423 845.382 181.55 854.673 174.391 859.559 168.975 864.444 163.554 867.792 157.411 869.557 150.529 871.245 143.956 871.167 138.367 869.307 133.64 867.488 128.927 864.258 125.942 859.599 124.749 847.99 121.768 838.419 131.993 830.924 155.442L793.761 134.969C802.934 111.398 814.838 95.2071 829.491 86.3383 844.144 77.4695 859.368 75.0379 875.159 79.0981 892.253 83.4894 904.687 93.084 912.445 107.932 920.175 122.716 921.477 140.096 916.333 160.124 912.903 173.475 906.683 185.392 897.715 195.885 888.746 206.378 866.762 220.369 831.786 237.748L893.333 253.562ZM1079.13 225.168 1019.61 192.07 1003.18 217.66C1014.8 214.888 1025.29 216.141 1034.67 221.348 1047.03 228.221 1054.77 239.803 1057.82 256.043 1060.86 272.289 1057.24 289.713 1046.91 308.295 1036.03 327.86 1021.77 340.839 1004.15 347.118 986.557 353.414 969.378 351.936 952.638 342.622 938.031 334.502 928.191 322.426 923.119 306.462 918.016 290.48 919.25 272.828 926.848 253.458L966.883 268.015C961.824 282.813 964.714 293.22 975.579 299.262 981.064 302.316 986.562 302.497 992.074 299.875 997.585 297.257 1002.08 292.784 1005.58 286.479 1009.5 279.429 1010.81 272.883 1009.52 266.904 1008.16 260.952 1005.08 256.61 1000.19 253.893 992.963 249.874 985.224 250.704 976.981 256.388L947.548 232.318 1013.64 128.219 1108.68 181.069 1079.13 225.159Z" fill="#2B2A29" transform="matrix(1 0 0 1.00043 1312 315.322)"/></g></g></g></g></svg>